# xmcd
#
# Track frame offsets:
#	150
#	18270
#	33855
#	59708
#	77345
#	97540
#	123170
#	139423
#	154838
#	166490
#	177860
#	197502
#	213035
#
# Disc length: 2984 seconds
#
# Revision: 1
# Processed by: cddbd v1.5.2PL0 Copyright (c) Steve Scherf et al.
# Submitted via: audiograbber 1.83.01
#
DISCID=9a0ba60d
DTITLE=Ross Kessler - Beach Front Home
DYEAR=2004
DGENRE=Funk
TTITLE0=Liv'n A Life Of Love
TTITLE1=Soul Mate
TTITLE2=Beach Front Home
TTITLE3=Hang'n Out
TTITLE4=For All Time
TTITLE5=I Love Every Moment
TTITLE6=Don't Worry My Friend
TTITLE7=I Found A Lady
TTITLE8=Blitz
TTITLE9=I Love The Way You ...
TTITLE10=Music Is The Food Of The Soul
TTITLE11=Something That Will Always Remain
TTITLE12=Think Of Good Things
EXTD=
EXTT0=
EXTT1=
EXTT2=
EXTT3=
EXTT4=
EXTT5=
EXTT6=
EXTT7=
EXTT8=
EXTT9=
EXTT10=
EXTT11=
EXTT12=
PLAYORDER=
